<svg xmlns="http://www.w3.org/2000/svg" viewBox="0 0 512 512" width="100%" height="100%">
  <rect width="512" height="512" fill="#09090b" rx="120" />
  <path fill="#E4E4E7" d="M174.90 172.30L174.90 172.30Q188.84 172.30 202.27 173.32Q215.70 174.34 228.62 176.55Q241.54 178.76 253.44 182.50L253.44 182.50L245.28 235.20Q232.70 234.86 220.97 234.86Q209.24 234.86 197 234.69Q184.76 234.52 169.80 234.52L169.80 234.52Q158.58 234.52 150.93 237.58Q143.28 240.64 138.18 247.78Q133.08 254.92 129.51 266.99Q125.94 279.06 123.22 297.08L123.22 297.08Q119.82 320.20 120.16 332.44Q120.50 344.68 125.77 349.10Q131.04 353.52 142.26 353.52L142.26 353.52Q152.80 353.52 159.26 350.80Q165.72 348.08 170.14 344.68Q174.56 341.28 177.96 339.58L177.96 339.58L190.20 368.82Q186.12 373.58 179.15 381.40Q172.18 389.22 161.98 397.38Q151.78 405.54 138.35 410.98Q124.92 416.42 107.92 416.42L107.92 416.42Q84.80 416.42 68.65 404.86Q52.50 393.30 46.21 365.93Q39.92 338.56 46.38 291.64L46.38 291.64Q51.48 255.26 61 231.97Q70.52 208.68 85.82 195.59Q101.12 182.50 123.05 177.40Q144.98 172.30 174.90 172.30ZM182.04 276.68L252.42 276.68L233.38 411.66L179.32 411.66L175.58 375.28L170.14 362.70L182.04 276.68Z"/>
  <path fill="#FFCC00" d="M293.21 177.06L366.99 177.06L334.01 411.66L260.23 411.66L293.21 177.06ZM352.37 261.04L414.93 261.04L407.45 313.40L345.23 313.40L352.37 261.04ZM423.09 177.06L496.87 177.06L463.89 411.66L390.11 411.66L423.09 177.06Z"/>
</svg>