<svg xmlns="http://www.w3.org/2000/svg" viewBox="0 0 549.5999999999999 120" width="100%" height="100%">
  <path fill="#E4E4E7" d="M33.60 35.60L33.60 35.60Q36.88 35.60 40.04 35.84Q43.20 36.08 46.24 36.60Q49.28 37.12 52.08 38L52.08 38L50.16 50.40Q47.20 50.32 44.44 50.32Q41.68 50.32 38.80 50.28Q35.92 50.24 32.40 50.24L32.40 50.24Q29.76 50.24 27.96 50.96Q26.16 51.68 24.96 53.36Q23.76 55.04 22.92 57.88Q22.08 60.72 21.44 64.96L21.44 64.96Q20.64 70.40 20.72 73.28Q20.80 76.16 22.04 77.20Q23.28 78.24 25.92 78.24L25.92 78.24Q28.40 78.24 29.92 77.60Q31.44 76.96 32.48 76.16Q33.52 75.36 34.32 74.96L34.32 74.96L37.20 81.84Q36.24 82.96 34.60 84.80Q32.96 86.64 30.56 88.56Q28.16 90.48 25 91.76Q21.84 93.04 17.84 93.04L17.84 93.04Q12.40 93.04 8.60 90.32Q4.80 87.60 3.32 81.16Q1.84 74.72 3.36 63.68L3.36 63.68Q4.56 55.12 6.80 49.64Q9.04 44.16 12.64 41.08Q16.24 38 21.40 36.80Q26.56 35.60 33.60 35.60ZM35.28 60.16L51.84 60.16L47.36 91.92L34.64 91.92L33.76 83.36L32.48 80.40L35.28 60.16ZM84.56 35.92L84.56 35.92Q92.24 35.92 97.36 37.52Q102.48 39.12 104.72 42.92Q106.96 46.72 106.08 53.36L106.08 53.36Q105.68 56.48 104.44 59.16Q103.20 61.84 100.64 63.60Q98.08 65.36 93.60 65.84L93.60 65.84L93.52 66.40Q94.88 66.56 96.44 67.40Q98 68.24 99.24 70.08Q100.48 71.92 100.80 75.28L100.80 75.28L102.88 91.92L84.96 91.92L83.52 75.20Q83.44 72.88 82.80 72.32Q82.16 71.76 80.32 71.76L80.32 71.76Q74.16 71.68 70.32 71.68Q66.48 71.68 63.88 71.60Q61.28 71.52 58.80 71.36L58.80 71.36L60.08 59.52L82 59.52Q84.40 59.52 85.72 59.04Q87.04 58.56 87.72 57.16Q88.40 55.76 88.80 53.20L88.80 53.20Q89.12 51.28 88.80 50.16Q88.48 49.04 87.44 48.60Q86.40 48.16 84.40 48.16L84.40 48.16Q75.84 48.16 70.12 48.28Q64.40 48.40 62.40 48.64L62.40 48.64L62.24 36.72Q65.84 36.32 69 36.16Q72.16 36 75.84 35.96Q79.52 35.92 84.56 35.92ZM62.24 36.72L79.20 36.72L71.44 91.92L54.48 91.92L62.24 36.72ZM138.24 35.60L138.24 35.60Q147.36 35.60 152.96 38.16Q158.56 40.72 160.60 47.08Q162.64 53.44 161.12 64.96L161.12 64.96Q160 73.44 157.88 78.96Q155.76 84.48 152.40 87.52Q149.04 90.56 144.20 91.80Q139.36 93.04 132.88 93.04L132.88 93.04Q123.36 93.04 117.88 90.44Q112.40 87.84 110.64 81.44Q108.88 75.04 110.40 63.68L110.40 63.68Q111.60 55.28 113.68 49.80Q115.76 44.32 119.04 41.20Q122.32 38.08 127.04 36.84Q131.76 35.60 138.24 35.60ZM138.08 48.48L138.08 48.48Q135.20 48.48 133.48 49.76Q131.76 51.04 130.72 54.56Q129.68 58.08 128.56 64.96L128.56 64.96Q127.60 71.28 127.68 74.56Q127.76 77.84 129.12 79Q130.48 80.16 133.28 80.16L133.28 80.16Q136.32 80.16 138 78.88Q139.68 77.60 140.76 74.04Q141.84 70.48 142.88 63.68L142.88 63.68Q143.84 57.36 143.76 54.12Q143.68 50.88 142.32 49.68Q140.96 48.48 138.08 48.48ZM228.48 36.72L245.52 36.72L231.60 87.60Q231.04 89.68 229.44 90.80Q227.84 91.92 225.52 91.92L225.52 91.92L210.96 91.92Q208.72 91.92 207.04 90.48Q205.36 89.04 205.44 86.96L205.44 86.96L206 57.44Q206.08 55.12 206.20 53.20Q206.32 51.28 206.40 49.04L206.40 49.04L204.96 49.04Q204.64 51.04 204.24 53.12Q203.84 55.20 203.36 57.20L203.36 57.20L195.44 87.60Q194.88 89.68 193.24 90.80Q191.60 91.92 189.36 91.92L189.36 91.92L174.40 91.92Q172.16 91.92 170.48 90.48Q168.80 89.04 168.88 86.96L168.88 86.96L169.04 36.72L186.08 36.72L183.92 70.88Q183.84 72.88 183.64 75.16Q183.44 77.44 183.28 80.08L183.28 80.08L184.64 80.08Q185.12 77.52 185.72 74.92Q186.32 72.32 186.88 70.16L186.88 70.16L194.56 41.52Q195.84 36.72 200.72 36.72L200.72 36.72L212.80 36.72Q215.12 36.72 216.64 38.28Q218.16 39.84 218.16 42.16L218.16 42.16L218.16 70.96Q218.16 73.12 218.12 75.52Q218.08 77.92 218 80.08L218 80.08L219.44 80.08Q219.68 77.84 220.16 75.12Q220.64 72.40 221.12 70.40L221.12 70.40L228.48 36.72ZM263.20 36.72L280.56 36.72L272.80 91.92L255.44 91.92L263.20 36.72ZM248.00 36.72L295.84 36.72L294 49.68L246.16 49.68L248.00 36.72ZM300.88 36.72L318.24 36.72L310.48 91.92L293.12 91.92L300.88 36.72ZM314.80 56.48L329.52 56.48L327.76 68.80L313.12 68.80L314.80 56.48ZM331.44 36.72L348.80 36.72L341.04 91.92L323.68 91.92L331.44 36.72ZM345.76 91.92L381.84 91.92L380.48 101.68L344.40 101.68L345.76 91.92Z"/>
  <path fill="#FFCC00" d="M393.36 36.72L410.72 36.72L402.96 91.92L385.60 91.92L393.36 36.72ZM407.28 56.48L422 56.48L420.24 68.80L405.60 68.80L407.28 56.48ZM423.92 36.72L441.28 36.72L433.52 91.92L416.16 91.92L423.92 36.72Z"/>
  <path fill="#F97316" d="M480.48 36.72L497.84 36.72L493.12 69.44Q491.92 78.24 489.08 83.40Q486.24 88.56 480.92 90.80Q475.60 93.04 466.80 93.04L466.80 93.04Q458.40 93.04 453.08 90.64Q447.76 88.24 445.64 82.92Q443.52 77.60 444.64 68.80L444.64 68.80L449.28 36.72L466.56 36.72L461.92 69.44Q461.28 73.60 461.44 75.96Q461.60 78.32 462.96 79.24Q464.32 80.16 467.20 80.16L467.20 80.16Q470.24 80.16 471.88 79.16Q473.52 78.16 474.36 75.68Q475.20 73.20 475.92 68.80L475.92 68.80L480.48 36.72Z"/>
  <path fill="#EF4444" d="M528.32 36.08L528.32 36.08Q535.68 36.08 540.12 37.40Q544.56 38.72 546.36 42Q548.16 45.28 547.36 51.12L547.36 51.12Q546.56 56.80 544.16 59.68Q541.76 62.56 536 63.04L536 63.04L535.92 63.52Q542.48 64.08 544.80 68Q547.12 71.92 546.16 78.80L546.16 78.80Q545.44 84.32 543.04 87.32Q540.64 90.32 536.20 91.44Q531.76 92.56 524.88 92.56L524.88 92.56Q518.64 92.56 514.04 92.52Q509.44 92.48 505.64 92.32Q501.84 92.16 497.92 91.92L497.92 91.92L500.24 80.32Q502.32 80.40 508.16 80.48Q514 80.56 521.52 80.56L521.52 80.56Q524.08 80.56 525.52 80.04Q526.96 79.52 527.68 78.12Q528.40 76.72 528.80 74L528.80 74Q529.12 71.76 528.88 70.60Q528.64 69.44 527.64 69Q526.64 68.56 524.64 68.56L524.64 68.56L502.40 68.56L503.76 58.08L524.96 58.08Q527.04 58.08 528.16 57.64Q529.28 57.20 529.88 55.96Q530.48 54.72 530.80 52.32L530.80 52.32Q531.04 50.72 530.84 49.80Q530.64 48.88 529.92 48.48Q529.20 48.08 527.76 48.08L527.76 48.08Q522.56 48.08 518.76 48.08Q514.96 48.08 511.92 48.12Q508.88 48.16 505.84 48.32L505.84 48.32L505.68 36.72Q509.12 36.40 512.48 36.28Q515.84 36.16 519.68 36.12Q523.52 36.08 528.32 36.08ZM505.68 36.72L522.64 36.72L514.88 91.92L497.92 91.92L505.68 36.72Z"/>
</svg>